<?xml version="1.0" encoding="UTF-8"?>
<svg width="960px" height="960px" viewBox="0 0 960 960" version="1.1" xmlns="http://www.w3.org/2000/svg" xmlns:xlink="http://www.w3.org/1999/xlink">
    <title>drivers/solarvault3-mqtt/assets/models/battery-base</title>
    <g id="/drivers/solarvault3-mqtt/assets/models/battery-base" stroke="none" fill="none" fill-rule="evenodd" stroke-width="1">
        <g id="solarvault-base-v2" transform="translate(1, 0)" fill="#000000">
            <path d="M295.72462,91.2451328 L878.977502,178.947995 C924.977183,185.864899 959,225.386165 959,271.902981 L959,691.679319 C959,731.383607 929.879656,765.080212 890.594583,770.834645 L866.821865,774.31692 C865.521185,783.535179 848.747309,791.082419 828.11378,791.442881 C815.073135,791.670697 803.473149,788.97573 796.292436,784.647181 L338.180986,851.751537 C338.205952,851.9889 338.220628,852.227646 338.224814,852.467689 C338.395678,862.264683 321.029701,870.512514 299.43682,870.889735 C284.807821,871.1453 271.991798,867.722728 265.193704,862.442005 L248.538228,864.882337 C219.612367,869.119364 190.082642,865.825316 162.801474,855.318379 L67.0776831,818.451784 C39.3385896,807.768485 21.0162336,781.136715 20.9547496,751.411534 L20.8595809,705.400748 C8.54028426,693.782486 1,677.329874 1,659.337111 L1,645.56878 C1,630.465835 8.82578484,617.035501 20.8123523,609.353764 L20.8123523,300.019788 C9.85137972,292.624476 2.57632314,280.311839 1.96891361,266.329687 C0.862953323,240.871238 11.6920693,216.40868 31.1805159,200.140984 C47.0127587,161.83557 82.4473607,134.569866 124.322669,129.56563 L140.065553,127.684305 L246.044986,94.9798693 C262.114456,90.020955 279.094366,88.7444664 295.72462,91.2451328 Z M60.926,737.981 L60.954664,751.328797 C60.9819903,764.539989 69.1252596,776.376331 81.4537456,781.124464 L177.177536,817.991059 C190.142643,822.984377 203.771853,825.847394 217.54161,826.521707 C205.138141,815.377943 197.1763,799.263015 196.986921,781.070135 L67.065,739.925 L66.4536817,739.925922 L66.453,739.731 L60.926,737.981 Z M919,683.84 L914.228992,684.318274 L909.180683,686.844548 C907.226931,687.822245 905.126185,688.473219 902.961928,688.771601 L217.083051,783.331741 C218.729049,807.413393 240.542803,825.420667 264.845,821.995526 L277.707,820.181 L884.797291,731.256982 C904.439828,728.379766 919,711.531463 919,691.679319 L919,683.84 Z M279.040945,130.000004 C271.873796,130.000004 264.726755,131.076099 257.839839,133.201348 L252.511379,134.84386 C231.623127,144.40033 216.820424,165.473278 216.820424,190.38151 L216.978,763.157 L229.123,761.482 C229.135583,439.329655 229.135583,270.045988 229.123,253.631 C229.110417,237.216012 228.968071,220.801481 228.695962,204.387407 C228.695962,170.886026 258.392743,145.166721 291.550721,149.951181 L872.570626,233.788203 C893.23549,236.769995 908.572447,254.478804 908.572447,275.357685 L908.144,315.129 L908.144,664.998 L908.572447,664.784485 L919,663.740854 L919,271.902981 C919,245.180555 899.454977,222.476849 873.029629,218.503309 L289.776747,130.800446 C286.213121,130.264589 282.62452,130.000004 279.040945,130.000004 Z M196.843595,270.612833 C195.978818,272.655644 194.988196,274.645821 193.87644,276.571667 L192.58805,278.803488 C189.705123,283.797455 185.099516,287.568301 179.634817,289.408963 C176.521104,290.457747 173.345738,291.313715 170.126761,291.972004 L93.9229081,307.555878 C91.4119352,308.069378 88.8599248,307.986121 86.453,307.362621 L86.453,725.085 L196.977,760.086 L196.843595,270.612833 Z M229.122085,257.225222 L229.122085,761.48455 L908.140631,664.967002 L908.140631,316.230434 L229.122085,257.225222 Z M60.47,640.816 L60.4702925,682.469602 L60.8123515,682.526213 L60.8791694,715.39986 C61.1019965,716.437335 61.8648716,717.299356 62.9066287,717.629265 L66.453,718.752 L66.4536817,230.769745 C66.4536817,226.112231 66.8515766,221.525906 67.6195414,217.048531 L67.5361464,217.205903 C67.3007455,217.651418 67.0710004,218.099594 66.8469452,218.550323 C66.1520793,220.453465 65.5297146,222.395279 64.9833729,224.372173 L64.0561263,225.097358 C61.6963407,231.672459 60.4703088,238.640665 60.4703088,245.703487 L60.47,269.209 L60.8123515,269.248309 L60.8123515,640.780971 L60.47,640.816 Z M44.47,642.502 L43.6856848,642.585292 C42.1589585,642.746135 41,644.033605 41,645.56878 L41,659.337111 C41,663.811976 42.2610354,668.029266 44.4694011,671.62181 L44.47,642.502 Z M185.20781,187.972897 L113.274973,212.483591 C110.634399,213.383351 108.059791,214.466173 105.569885,215.724176 C103.285198,216.878494 101.307352,218.558958 99.7991848,220.627212 L94.4920843,227.905207 C91.9444982,231.398888 90.0709868,235.337147 88.9676839,239.517904 C87.9155812,243.504647 87.2772345,247.589223 87.0627642,251.706874 L86.8184224,256.398033 C86.6028439,260.536963 86.8166913,264.687091 87.4565394,268.781941 L88.2985141,274.170346 C88.8869491,277.936168 89.8328809,281.637351 91.1234844,285.223715 L91.6533865,286.696222 C91.7569389,286.983976 91.8817861,287.262713 92.0279433,287.529473 L166.119645,272.37754 C168.533878,271.883823 170.915403,271.241847 173.250687,270.455259 C174.10134,270.168735 174.818263,269.581754 175.267029,268.804377 L176.555419,266.572555 C178.155551,263.800718 179.357629,260.81748 180.12629,257.710606 C180.860488,254.743026 181.312166,251.713491 181.475766,248.662526 L178.161582,249.701982 C176.97162,250.074998 175.672958,249.755005 174.792521,248.871841 C173.858264,247.934689 173.221783,246.742349 172.963036,245.444606 L172.781478,244.534004 C171.895692,240.091355 171.44957,235.572272 171.44957,231.042179 L171.44957,215.014275 C171.44957,213.008117 171.77206,211.015003 172.404699,209.111208 C173.029092,207.232225 174.164511,205.564298 175.683667,204.294414 C177.938853,202.40927 180.495628,200.91799 183.246591,199.883183 L184.199,199.524 L185.070348,189.847107 L185.182943,188.415877 L185.20781,187.972897 Z M44.4698035,248.341569 C42.5788846,253.467923 41.6875051,258.98343 41.9312232,264.593653 C41.9935534,266.028452 43.062244,267.211267 44.4699647,267.428251 L44.4698035,248.341569 Z M208.494361,148.426275 L148.4038,166.972465 L146.496,167.199 L129.385311,172.507115 C115.1409,176.924583 103.426853,186.229169 95.8539421,198.234889 C96.0841811,198.112185 96.3167917,197.991465 96.5508415,197.873214 C99.8707152,196.195876 103.303527,194.752114 106.824292,193.552433 L185.987902,166.577896 C189.888938,165.248641 194.160982,165.546942 197.839429,167.405446 C198.522533,167.750578 199.168098,168.148524 199.772178,168.592869 C201.766141,161.403201 204.726631,154.635732 208.494361,148.426275 Z" id="Shape" fill-rule="nonzero"></path>
        </g>
    </g>
</svg>