<?xml version="1.0" encoding="UTF-8"?>
<svg width="960px" height="960px" viewBox="0 0 960 960" version="1.1" xmlns="http://www.w3.org/2000/svg" xmlns:xlink="http://www.w3.org/1999/xlink">
    <title>solarvault-base+3</title>
    <g id="solarvault-base+3" stroke="none" fill="none" fill-rule="nonzero">
        <path d="M392.112864,1.44176006 L658.41976,23.4825024 C700.821288,26.9918413 733.495405,62.3481044 733.65562,104.894307 L736.508585,862.369586 C736.510563,862.896761 736.507365,863.422778 736.499038,863.947587 C736.490056,864.51364 736.475104,865.078395 736.454242,865.641684 C736.442059,865.970643 736.427884,866.298588 736.411711,866.626022 C736.399837,866.866373 736.386877,867.106663 736.372843,867.346672 C736.360267,867.561848 736.346814,867.776937 736.3325,867.991797 C736.319173,868.191741 736.305125,868.391242 736.290336,868.590542 C736.273171,868.821988 736.254971,869.053499 736.235774,869.284734 C736.22139,869.457862 736.206467,869.630713 736.190988,869.803409 C736.169504,870.04323 736.146943,870.282673 736.123314,870.521808 C736.107603,870.680643 736.09142,870.839501 736.074766,870.998222 C736.050273,871.231835 736.024766,871.464936 735.998247,871.697735 C735.975465,871.897503 735.951987,872.096824 735.927767,872.295922 C735.906081,872.474431 735.883711,872.653237 735.860743,872.831859 C735.831565,873.058505 735.801517,873.28442 735.770514,873.510038 C735.743849,873.704391 735.716401,873.898769 735.688247,874.092923 C735.65896,874.294558 735.628982,874.495775 735.598245,874.696747 C735.573552,874.858565 735.548261,875.020564 735.522477,875.182402 C735.482376,875.433705 735.441254,875.683983 735.398957,875.933869 C735.366545,876.125803 735.333302,876.317887 735.299365,876.509736 C735.265995,876.697892 735.232103,876.885477 735.19755,877.072833 C735.156232,877.297398 735.113834,877.521827 735.070487,877.745923 C735.035998,877.923659 735.000937,878.101595 734.965279,878.279319 C734.925195,878.479715 734.884388,878.679096 734.84283,878.878206 C734.795515,879.104221 734.747218,879.330584 734.697953,879.556591 C734.666236,879.702825 734.634064,879.848439 734.601489,879.993903 C734.551813,880.214949 734.501303,880.435973 734.449868,880.656647 C734.398719,880.876963 734.346451,881.096933 734.293265,881.31655 C734.262182,881.44397 734.231075,881.571005 734.19966,881.69792 C734.139523,881.941871 734.07798,882.185522 734.015306,882.428726 C733.969357,882.605951 733.923163,882.782614 733.876372,882.959038 C733.818239,883.17938 733.758881,883.399358 733.698597,883.618959 C733.662193,883.750346 733.625662,883.882049 733.588797,884.013614 C733.516295,884.27367 733.442324,884.532567 733.367067,884.790925 C733.323957,884.937518 733.280828,885.083954 733.237286,885.230215 C733.169517,885.459348 733.100259,885.688205 733.029993,885.916627 C732.986231,886.057302 732.942602,886.197687 732.898593,886.337905 C732.822567,886.581813 732.744927,886.82507 732.666143,887.067819 C732.646584,887.126318 732.627368,887.185274 732.608084,887.244199 C732.501822,887.570764 732.393239,887.895422 732.28261,888.219145 C732.24374,888.330885 732.205114,888.44305 732.166242,888.555103 C732.080021,888.805754 731.991989,889.055491 731.902739,889.304656 C731.852835,889.441741 731.80339,889.578535 731.753578,889.715155 C731.665009,889.960439 731.574405,890.205216 731.482625,890.449424 C731.469356,890.48227 731.456922,890.515274 731.444468,890.548268 C720.981106,918.277744 695.350337,938.651809 664.477197,941.361012 L664.588338,941.253598 C656.555954,948.907114 645.677213,953.581019 633.706823,953.581019 L619.414686,953.581019 C608.941661,953.581019 599.30426,950.003289 591.682725,943.972929 L581.864801,944.309715 L581.29341,944.610393 C575.152214,947.768855 568.190858,949.539601 560.830412,949.539601 L546.538275,949.539601 C540.490533,949.539601 534.687813,948.338624 529.393963,946.111844 L441.153801,949.140715 L440.725762,949.50955 C432.928557,956.095852 422.845051,960.047288 411.838637,960.047288 L395.117287,960.047288 C385.018556,960.047288 375.696787,956.720716 368.220231,951.063356 L362.202801,950.880715 L361.619536,951.18475 C355.548114,954.277034 348.671673,956.00587 341.39144,956.00587 L327.099303,956.00587 C318.005869,956.00587 309.542409,953.308633 302.478816,948.650717 C296.305977,947.758553 290.328486,945.998645 284.716255,943.449599 C276.877018,939.896916 269.75222,934.799892 263.807337,928.370245 C243.900449,918.058024 230.579558,897.578275 229.93329,874.354782 L229.749157,867.737972 C229.618018,863.025533 230.23376,858.461855 231.51646,854.173441 C230.252262,849.0439 229.623927,843.770444 229.635882,838.470005 L229.919563,712.699142 C229.942215,702.656376 232.318102,692.951939 236.66691,684.265554 C232.35259,675.563257 230.025229,665.85171 230.047857,655.819446 L230.389975,504.140195 C230.407171,496.516471 232.082926,489.201337 235.142246,482.603763 C233.087056,477.015809 231.999896,470.98299 232.027295,464.720084 L232.711473,308.326823 C232.713382,307.890489 232.720411,307.455193 232.774497,307.030434 C226.124809,299.064615 222.158627,289.078929 221.629567,278.516893 L221.040819,266.763256 C220.296101,251.895852 227.765026,238.529943 239.475165,231.078045 L239.475165,122.625697 C237.432907,121.081975 235.554233,119.316375 233.829401,117.388895 C225.38585,107.953321 221.205616,95.2828812 222.639371,82.4024447 C225.425382,57.3737526 243.148678,36.7490319 267.098668,30.0372996 C280.430153,16.6728485 298.421674,8.98730679 317.337746,8.59638145 L368.265155,1.99440794 C373.009639,1.37935679 377.785188,1.06664709 382.562947,1.05694754 C385.74812,1.05048116 388.934276,1.17868596 392.112864,1.44176006 Z M297.679801,887.242715 L297.679814,888.999704 C297.679814,899.518307 305.827461,908.239318 316.321788,908.953545 L322.897638,909.401086 L322.877801,909.671715 L346.390732,910.38422 L360.663944,910.815622 C356.165877,904.620253 353.110673,897.304233 352.000335,889.356577 L297.679801,887.242715 Z M691.130565,882.439769 L372.297014,889.162604 C375.116173,901.000701 385.448955,909.895247 397.913317,910.603447 L416.836801,909.952715 L541.665896,905.666999 L565.821656,904.837979 L614.413732,903.16822 L614.412801,903.168715 L638.705801,902.334715 L658.846879,901.644102 C672.653954,901.170026 684.576872,893.561753 691.130565,882.439769 Z M277.679801,862.287715 L273.51065,862.520143 C271.347791,862.640084 269.67342,864.459932 269.733678,866.625276 L269.917811,873.242087 C270.099199,879.760214 273.029211,885.683331 277.686876,889.768757 C277.682246,889.513186 277.679814,889.256713 277.679814,888.999704 L277.679801,862.287715 Z M297.680039,724.785536 L297.679801,867.227715 L351.558801,869.322715 L351.812586,724.906652 C350.267298,725.312528 348.645122,725.528668 346.972463,725.528668 L302.959597,725.528668 C301.127623,725.528668 299.356206,725.269393 297.680039,724.785536 Z M695.844801,686.618715 L695.779088,691.83514 L387.307884,687.918188 L371.877801,687.917715 L371.558801,869.172715 L696.506801,862.320715 L695.844801,686.618715 Z M269.919461,712.789363 L269.63578,838.560226 C269.628937,841.594197 270.156879,844.605631 271.195381,847.45634 C272.181534,850.16335 274.405477,852.23364 277.176046,853.023798 L277.679801,853.166715 L277.67988,695.175417 C272.804874,699.655121 269.934737,706.016898 269.919461,712.789363 Z M345.972463,690.524742 L303.959597,691.586433 L303.959597,705.528668 L345.972463,705.528668 L345.972463,690.524742 Z M270.389873,504.230416 L270.047755,655.909668 C270.032541,662.655039 272.850454,669.013931 277.679839,673.516787 L277.680137,493.219702 C273.314871,495.079887 270.400802,499.385074 270.389873,504.230416 Z M297.680039,527.889749 L297.680115,672.355179 C299.208431,671.914186 300.816852,671.659467 302.479609,671.617448 L346.492474,670.505215 C348.367735,670.457826 350.185137,670.683461 351.907166,671.145539 L352.159837,527.916106 C350.510953,528.383016 348.770887,528.632881 346.972463,528.632881 L302.959597,528.632881 C301.127623,528.632881 299.356206,528.373606 297.680039,527.889749 Z M372.223801,491.021715 L371.912801,667.917715 L387.434869,667.918188 L387.498351,667.918994 L695.788801,671.832715 L695.122801,494.929715 L387.307884,491.022401 L372.223801,491.021715 Z M345.972463,493.628954 L303.959597,494.690645 L303.959597,508.632881 L345.972463,508.632881 L345.972463,493.628954 Z M349.452688,324.036752 L306.224796,327.909154 C303.209871,328.179234 300.30826,327.732094 297.680209,326.714264 L297.680115,475.459392 C299.208431,475.018399 300.816852,474.763679 302.479609,474.721661 L346.492474,473.609428 C348.494136,473.558845 350.429877,473.819332 352.254073,474.346402 L352.51953,323.508374 C351.527879,323.764151 350.503453,323.942623 349.452688,324.036752 Z M272.711091,308.501811 L272.026912,464.895071 C272.008182,469.176349 274.246393,472.991708 277.680096,475.133717 L277.679913,297.414229 C274.620919,300.167865 272.730151,304.144925 272.711091,308.501811 Z M372.581801,287.298715 L372.258801,471.021715 L387.434869,471.022401 L387.498351,471.023207 L695.047801,474.927715 L694.394801,301.342715 L387.142933,287.298964 L372.581801,287.298715 Z M346.757436,288.516829 L305.529543,293.265281 L305.529543,307.891348 L346.757436,304.198108 L346.757436,288.516829 Z M273.729275,264.222152 L260.990732,264.762137 L261.57948,276.515774 C261.703784,278.997354 262.926548,281.29474 264.915597,282.783826 C266.953886,284.309774 269.431596,285.134481 271.977797,285.134481 L277.679801,285.133715 L277.680606,262.507073 C276.656553,263.51373 275.27103,264.156798 273.729275,264.222152 Z M372.976799,63.4114781 L372.617801,267.298715 L387.599826,267.298964 L387.828032,267.309396 L694.318801,281.318715 L693.655903,105.044932 C693.573842,83.252975 676.838319,65.1436695 655.120463,63.3462032 L392.375359,41.5994496 C381.547525,42.8728882 372.99673,52.0789093 372.976799,63.4114781 Z M345.108015,107.751496 L309.13887,113.813213 C305.093408,114.494977 301.144513,113.912533 297.68031,112.364398 L297.680371,274.647992 C299.154272,274.079095 300.720744,273.68692 302.355577,273.498627 L345.583469,268.519824 C348.020932,268.239088 350.393662,268.430827 352.615825,269.018523 L352.903779,105.121233 C350.51474,106.379683 347.894976,107.281822 345.108015,107.751496 Z M381.091598,75.8540864 C381.091598,61.1618544 393.700568,49.6372208 408.333599,50.9548207 L662.903116,73.8769868 C675.789301,75.0372957 685.661115,85.8379343 685.661115,98.7762525 L685.661115,113.536663 L381.091598,87.6794572 Z M278.522435,68.3774172 L278.391816,68.4097007 C269.790304,70.6142586 263.385057,77.922828 262.393841,86.8276208 L262.362753,87.3445784 C262.361896,87.440937 262.363814,87.5367463 262.368433,87.6319257 C262.377916,87.8268311 262.398631,88.0185135 262.429995,88.2068848 C262.443488,88.287884 262.458867,88.3678897 262.476147,88.4472352 C262.588653,88.9636107 262.781511,89.4516669 263.04159,89.8970315 C263.094577,89.987769 263.150383,90.0767775 263.20887,90.1638871 C263.364104,90.3950793 263.538152,90.6128198 263.728982,90.8148584 C263.805112,90.8954586 263.8839,90.9735493 263.965227,91.0489935 C264.109727,91.1830671 264.262615,91.3090597 264.422805,91.4258198 C264.508647,91.4883756 264.596145,91.5480001 264.685605,91.6048724 C265.36714,92.0381037 266.162288,92.3115755 267.021036,92.3693102 C267.134218,92.3769127 267.248191,92.3807673 267.363149,92.3807673 L270.680612,92.3807673 C273.470004,92.3807673 276.012271,93.6604823 277.680827,95.7174802 L277.679814,77.545087 C277.679814,74.4221286 277.968451,71.3569396 278.522435,68.3774172 Z M346.82775,70.4910035 L308.594383,76.4882256 C306.948298,76.7464279 305.665108,78.0456728 305.429231,79.6897106 C305.062312,82.2534906 305.160436,87.1683857 305.819137,94.0884473 L341.784372,88.0295947 C344.700468,87.5381581 346.823738,84.9934823 346.785339,82.035382 C346.766721,80.601133 346.757436,79.0872313 346.757436,77.4932853 C346.757436,74.9831709 346.780419,72.6475475 346.82775,70.4910035 Z M357.912978,43.6696299 L320.648679,48.5018732 L320.159223,48.5021977 C314.715713,49.9082204 309.925008,52.7716898 306.180221,56.6217296 L352.172834,49.4080325 C353.2759,49.2350074 354.362319,49.2050575 355.415426,49.3029348 C356.11231,47.353168 356.948999,45.4715922 357.912978,43.6696299 Z" id="Combined-Shape" fill="#000000"></path>
    </g>
</svg>