<?xml version="1.0" encoding="UTF-8"?>
<svg width="960px" height="960px" viewBox="0 0 960 960" version="1.1" xmlns="http://www.w3.org/2000/svg" xmlns:xlink="http://www.w3.org/1999/xlink">
    <title>solarvault-base+2</title>
    <g id="solarvault-base+2" stroke="none" fill="none" fill-rule="nonzero">
        <path d="M225.500487,925.399994 L224.985738,924.919885 C224.928833,924.86588 224.871247,924.811408 224.813751,924.756824 C224.73135,924.678918 224.649921,924.6012 224.568676,924.523257 C224.353714,924.31678 224.139221,924.108227 223.926039,923.898103 C223.667284,923.643228 223.410275,923.385653 223.155234,923.125779 C223.099913,923.069299 223.0447,923.012842 222.989579,922.956277 C222.618268,922.575307 222.251018,922.189176 221.888089,921.798196 C221.747162,921.646348 221.607051,921.493982 221.467597,921.340888 C221.295407,921.151874 221.123984,920.961472 220.953576,920.769964 C220.479513,920.237204 220.013392,919.696002 219.555359,919.146369 L219.033901,918.520626 C196.774307,907.503472 181.818603,884.90554 181.105276,859.226081 L180.849116,850.00442 C180.695151,844.461731 181.574418,839.124861 183.351691,834.198364 C181.595467,827.871859 180.722056,821.324626 180.752255,814.741219 L181.659417,616.982197 C181.698821,608.39234 183.843091,600.198174 187.673078,592.971554 C185.063814,586.783988 183.666476,579.989026 183.697436,572.899257 L184.571828,372.665824 C184.575194,371.895097 184.594534,371.12761 184.683109,370.375901 C176.383329,361.694883 171.391181,350.252663 170.782358,338.076346 L170.050823,323.445822 C169.26646,307.758747 177.628271,293.735293 190.475429,286.577337 L190.475429,138.593251 C187.761749,136.691657 185.267376,134.465519 183.031444,131.967387 C174.587961,122.533766 170.406433,109.865584 171.837463,96.9864662 L171.965215,95.8367158 C175.068607,67.9065153 195.237388,45.0035936 222.303461,38.2907952 L223.973585,36.4616337 C237.993979,21.1061462 257.827888,12.3578904 278.621216,12.3578904 L281.51264,12.3578909 L346.323211,3.94103363 C351.076047,3.32378964 355.860113,3.00996514 360.646402,3 C363.837261,3 367.029107,3.12241056 370.213346,3.38642722 L712.172952,31.7395245 C754.537713,35.2521388 787.193442,70.5580511 787.396354,113.0677 L790.933703,853.750508 C791.135788,896.469758 757.343068,931.612312 714.648581,933.080901 L714.183,933.095 L707.569239,933.324142 C699.369431,942.514045 687.428893,948.271053 674.143734,948.271053 L653.97165,948.271053 C642.148889,948.271053 631.391016,943.711722 623.39353,936.219808 L606.754,936.791 L606.221672,937.112115 C599.602423,941.02414 591.873999,943.242359 583.627482,943.242359 L563.455398,943.242359 C556.620184,943.242359 550.133523,941.71644 544.347425,938.938493 L430.651,942.849 L430.263383,943.242002 C422.140958,951.328162 410.939094,956.316964 398.572032,956.316964 L375.38274,956.316964 C364.067459,956.316964 353.72761,952.140642 345.848676,945.214682 L334.162,944.86 L333.629708,945.180065 C327.018514,949.078485 319.303812,951.28827 311.072988,951.28827 L290.900904,951.28827 C281.002948,951.28827 271.851368,948.092656 264.452214,942.638184 C249.878751,941.352148 236.187289,935.261514 225.500487,925.399994 L225.500487,925.399994 Z M286.729339,903.275351 L286.72,903.403 L333.988623,904.837283 C328.247222,896.91597 324.861829,887.164159 324.885083,876.597521 L324.902,868.721 L253.15,865.926 L253.15,882.303074 C253.15,892.820736 261.296365,901.541305 271.789666,902.256749 L286.729339,903.275351 Z M411.44165,903.25939 L411.449,903.484 L558.458,898.429 L588.626915,897.391246 L648.970915,895.315246 L679.142,894.278 L713.27349,893.104544 C732.322891,892.44929 747.782596,878.214785 750.506785,859.91252 L344.902,868.481 L344.885084,876.641622 C344.850082,892.546554 358.054083,905.286742 373.947598,904.683198 L411.44165,903.25939 Z M233.15,844.313 L224.610273,844.788813 C222.447657,844.908957 220.77355,846.728609 220.833692,848.893724 L221.089853,858.115385 C221.344602,867.286265 225.978312,875.509698 233.149676,880.543525 L233.15,844.313 Z M253.605501,646.251962 L253.15,646.084152 L253.15,845.91 L324.946,848.708 L325.392574,646.225215 C323.387352,646.944916 321.226023,647.337028 318.973112,647.337028 L259.949942,647.337028 C257.7251,647.337028 255.589573,646.954626 253.605501,646.251962 L253.605501,646.251962 Z M345.494,600.538 L344.947,848.476 L750.864,839.9 L749.745,605.407 L366.908592,600.538 L345.494,600.538 Z M233.15,833.79 L233.15,604.907 L230.447179,605.658505 C225.273003,607.095759 221.68363,611.795657 221.658996,617.165684 L220.751834,814.924706 C220.734522,818.698722 221.385843,822.445972 222.675614,825.9928 C223.90045,829.361058 226.665731,831.938006 230.11188,832.922608 L233.15,833.79 Z M317.973112,603.719958 L260.949942,605.163566 L260.949942,627.337028 L317.973112,627.337028 L317.973112,603.719958 Z M321.646372,392.5916 L263.598179,397.800992 C259.835391,398.138674 256.248966,397.359133 253.15014,395.747208 L253.15014,586.441983 C255.118114,585.687814 257.244986,585.250953 259.469089,585.194647 L318.492259,583.700407 C320.967025,583.637756 323.341043,584.050603 325.528089,584.854878 L325.954868,391.696496 C324.584474,392.152231 323.142119,392.457368 321.646372,392.5916 Z M346.053,347.047 L345.538,580.538 L367.099383,580.539506 L749.649,585.405 L748.595,364.534 L366.743331,347.047 L346.053,347.047 Z M233.150218,584.853522 L233.149645,359.348081 L233.055045,359.393272 L232.764746,359.537109 C227.861567,362.033148 224.596479,367.108175 224.571447,372.840497 L223.697054,573.07393 C223.672117,578.784613 227.662801,583.666455 233.150218,584.853522 Z M318.948089,348.267916 L262.899896,354.734938 L262.899896,377.783281 L318.948089,372.753375 L318.948089,348.267916 Z M233.521739,76.7070786 L233.26034,76.7600246 C221.730756,79.065914 213.019017,88.5680354 211.720558,100.254029 L211.592807,101.403779 C211.26371,104.365611 213.582166,106.955943 216.562225,106.955943 L219.536735,106.955943 C224.788744,106.955943 229.336095,110.60369 230.475429,115.73063 L230.475429,314.752241 C230.475429,317.954998 227.959948,320.593112 224.760816,320.74545 L210.000915,321.448294 L210.73245,336.078817 C210.88668,339.163371 212.405063,342.019464 214.8758,343.872494 C217.407272,345.771076 220.486243,346.79739 223.65057,346.79739 L233.15,346.79739 L233.150128,82.8161199 C233.150128,80.7518531 233.27624,78.7128199 233.521739,76.7070786 Z M346.097,327.047 L367.20104,327.047737 L748.499,344.508 L747.39681,113.258631 C747.292879,91.4853961 730.566774,73.4018801 708.86775,71.6027362 L389.69,45.138 L389.646281,45.7571403 L370.267878,44.3478187 C357.541932,43.4223063 346.700301,53.4818301 346.672165,66.241356 L346.097,327.047 Z M317.369525,123.116723 L266.856395,131.644812 C261.909545,132.479985 257.102453,131.424041 253.1501,129.020322 L253.1501,336.974554 C255.150503,335.936533 257.365204,335.240856 259.722063,334.968914 L317.770256,328.271126 C320.685439,327.934762 323.508138,328.27427 326.091493,329.158759 L326.55397,119.696872 C323.805838,121.369379 320.708222,122.553054 317.369525,123.116723 Z M359.17237,79.7145242 C359.17237,65.0206903 371.783964,53.4955206 386.418379,54.8156197 L714.709389,84.4291471 C727.59385,85.5913913 737.463381,96.3912767 737.463381,109.328052 L737.463381,133.280004 L359.17237,101.106152 L359.17237,79.7145242 Z M262.800197,90.8151502 C262.259848,94.597538 262.4687,101.770313 263.531497,111.923122 L314.040059,103.395804 C316.980007,102.899455 319.109373,100.32163 319.041015,97.3428794 C318.978975,94.6394662 318.948089,91.6697092 318.948089,88.4316039 C318.948089,84.1608581 319.001716,80.3018969 319.110987,76.8541727 L268.763064,84.7658949 C265.664914,85.2527412 263.245398,87.7065454 262.800197,90.8151502 Z M331.795992,46.1624593 L284.099155,52.3578904 L282.967,52.357 L277.783626,53.3000114 C268.847464,54.9247488 261.44025,60.4073256 257.153274,67.8410414 C259.759661,66.4584609 262.623081,65.4853109 265.658344,65.0083467 L324.534233,55.7565313 C325.723598,55.5696333 326.892983,55.5489811 328.021782,55.6753761 C328.895103,52.3193138 330.171989,49.1305991 331.795992,46.1624593 Z" id="Shape" fill="#000000"></path>
    </g>
</svg>