<?xml version="1.0" encoding="UTF-8"?>
<svg width="960px" height="960px" viewBox="0 0 960 960" version="1.1" xmlns="http://www.w3.org/2000/svg" xmlns:xlink="http://www.w3.org/1999/xlink">
    <title>drivers/solarvault3-mqtt/assets/icon</title>
    <g id="/drivers/solarvault3-mqtt/assets/icon" stroke="none" fill="none" fill-rule="evenodd" stroke-width="1">
        <g id="solarvault-base+1" fill="#000000">
            <path d="M326.10768,3.38787056 L808.274786,43.4410512 C850.574494,46.9548493 883.201289,82.1676624 883.484675,124.612117 L888.284899,842.775093 C888.568272,886.01534 854.039958,921.452825 810.806076,922.287818 L783.716422,922.810514 C775.804745,935.552321 761.67813,944.009285 745.576286,944.009285 L714.507449,944.009285 C699.282939,944.009285 685.824276,936.448796 677.707102,924.857392 L652.682793,925.34089 C644.715839,932.691112 634.063711,937.151623 622.369775,937.151623 L591.300938,937.151623 C580.546719,937.151623 570.673598,933.379195 562.941982,927.074155 L410.732323,930.014079 C403.400415,944.824937 388.126764,954.981544 370.480909,954.981544 L335.305189,954.981544 C318.297947,954.981544 303.494313,945.546781 295.851155,931.620223 L286.415449,931.333533 C278.183603,941.578594 265.54681,948.123882 251.381282,948.123882 L220.312446,948.123882 C204.632867,948.123882 190.826277,940.104664 182.784969,927.933965 C165.670814,926.25684 149.857418,917.879337 138.785113,904.567812 L133.305291,897.979769 C106.283209,885.82865 87.9573879,859.100012 87.1115027,828.591397 L86.7221157,814.547342 C86.5270733,807.512733 87.9963415,800.809696 90.8121229,794.840771 C87.9990412,786.582344 86.5912028,777.908653 86.6311812,769.177105 L87.8849067,495.355637 C87.9069058,490.550895 88.5874722,485.869895 89.8848819,481.424702 C79.8274739,471.898587 73.745034,458.807641 73.0467606,444.816147 L72.0506341,424.85649 C71.1256761,406.322857 82.9671262,390.112127 99.8698682,384.786702 L99.8698682,166.10065 C94.3890314,163.57016 89.4585878,159.922826 85.3854865,155.373027 C76.9420746,145.941435 72.7592025,133.275599 74.1874019,120.39785 L75.3771563,109.670107 C78.5928777,80.6746808 100.200929,57.0928171 128.805553,51.3612313 L136.396722,49.8401688 L145.312401,40.0571793 C159.334653,24.6708546 179.189194,15.9024335 200.006556,15.9024335 L210.268669,15.9024338 L302.173315,3.94452247 C310.109217,2.91196527 318.132356,2.72536765 326.10768,3.38787056 Z M307.334299,43.6101783 L212.859988,55.9024335 L200.006556,55.9024335 C190.441822,55.9024335 181.319466,59.9311675 174.876809,67.00056 L157.122078,86.4824551 L136.664253,90.5816448 C125.137017,92.8913883 116.429294,102.394527 115.133407,114.079251 L113.943652,124.806995 C113.61521,127.768486 115.933535,130.358138 118.913184,130.358138 L124.958759,130.358138 C132.119687,130.358138 138.319198,135.333217 139.869868,142.324234 L139.869868,415.812548 C139.869868,419.015099 137.354701,421.653119 134.155789,421.805732 L112.000913,422.862692 L112.997039,442.822349 C113.20674,447.024173 115.272993,450.915474 118.636378,453.442713 C122.081836,456.031622 126.274957,457.431412 130.58467,457.431412 L151.813706,455.885625 L151.812913,457.430518 L153.140799,457.431412 L153.140799,472.05664 L151.812913,472.305518 L151.813706,479.817816 L136.66708,484.033053 C131.495636,485.472242 127.909065,490.170866 127.884487,495.53878 L126.630762,769.360249 C126.609711,773.957902 127.401802,778.523061 128.970452,782.84489 C130.815171,787.927319 134.98476,791.817206 140.182848,793.305142 L150.486612,796.254561 L150.486612,808.220656 L130.482921,809.334043 C128.32056,809.454398 126.646726,811.273847 126.70675,813.438724 L127.096137,827.482779 C127.584573,845.099256 139.938644,860.149831 157.122078,864.062435 L169.537395,878.988578 C174.300868,884.715398 181.291855,888.124059 188.737394,888.350102 L215.311913,889.155518 L215.312446,903.123882 C215.312446,905.885306 217.551022,908.123882 220.312446,908.123882 L251.381282,908.123882 C254.142706,908.123882 256.381282,905.885306 256.381282,903.123882 L256.380913,890.402518 L306.573695,891.927553 C307.79817,891.964728 309.023379,891.971491 310.248189,891.947835 L330.304913,891.559518 L330.305189,909.981544 C330.305189,912.742968 332.543765,914.981544 335.305189,914.981544 L370.480909,914.981544 C373.242333,914.981544 375.480909,912.742968 375.480909,909.981544 L375.479913,890.687518 L586.300913,886.615518 L586.300938,892.151623 C586.300938,894.913047 588.539515,897.151623 591.300938,897.151623 L622.369775,897.151623 C625.131199,897.151623 627.369775,894.913047 627.369775,892.151623 L627.368913,885.822518 L709.506913,884.235518 L709.507449,899.009285 C709.507449,901.770709 711.746025,904.009285 714.507449,904.009285 L745.576286,904.009285 C748.33771,904.009285 750.576286,901.770709 750.576286,899.009285 L750.575913,883.442518 L810.034417,882.295262 C831.377364,881.883057 848.422987,864.388603 848.284794,843.042151 L843.485566,124.879176 C843.340417,103.139333 826.629132,85.1035021 804.963428,83.3037519 L322.796322,43.2505713 C317.644122,42.8225827 312.461032,42.943128 307.334299,43.6101783 Z M151.812913,472.305518 L151.812913,457.430518 L152.925843,460.934256 C151.728722,462.156115 151.357745,465.946535 151.812913,472.305518 Z M326.10768,3.38787056 L808.274786,43.4410512 C850.574494,46.9548493 883.201289,82.1676624 883.484675,124.612117 L888.284899,842.775093 C888.568272,886.01534 854.039958,921.452825 810.806809,922.287804 L311.020581,931.940377 C309.133711,931.976819 307.246227,931.960018 305.359874,931.909132 L187.523573,928.331681 C168.623359,927.75788 150.877007,919.105124 138.785113,904.567812 L133.30529,897.979769 C106.283209,885.82865 87.9573879,859.100012 87.1115027,828.591397 L86.7221157,814.547342 C86.5270733,807.512733 87.9963415,800.809696 90.8121228,794.840772 C87.9990412,786.582344 86.5912028,777.908653 86.6311812,769.177105 L87.8849067,495.355637 C87.9069058,490.550895 88.5874722,485.869895 89.8848825,481.424702 C79.8274739,471.898587 73.745034,458.807641 73.0467606,444.816147 L72.0506341,424.85649 C71.1256761,406.322857 82.9671262,390.112127 99.869868,384.786703 L99.869868,166.100649 C94.3890314,163.57016 89.4585878,159.922826 85.3854865,155.373027 C76.9420746,145.941435 72.7592025,133.275599 74.1874019,120.39785 L75.3771563,109.670107 C78.5928777,80.6746808 100.200929,57.0928171 128.805553,51.3612313 L136.396722,49.8401689 L145.312401,40.0571793 C159.334653,24.6708546 179.189194,15.9024335 200.006556,15.9024335 L210.268666,15.9024342 L302.173315,3.94452247 C310.109217,2.91196527 318.132356,2.72536765 326.10768,3.38787056 Z M130.58467,457.431412 L130.710823,458.573065 C130.971396,460.986296 131.149043,463.007246 131.243763,464.635916 C131.595711,470.687529 137.181915,475.054506 143.13955,473.935368 L151.813706,472.305933 L151.813706,457.431412 L151.813706,455.885625 L151.813706,457.431412 L153.140799,457.431412 L153.140799,472.05664 L151.813706,472.305933 L151.813706,479.817816 L136.66708,484.033053 C131.495636,485.472242 127.909065,490.170866 127.884487,495.53878 L126.630762,769.360249 C126.609711,773.957902 127.401802,778.523061 128.970452,782.84489 C130.815171,787.927319 134.98476,791.817206 140.182848,793.305142 L150.486612,796.254561 L150.486612,808.220656 L130.482921,809.334043 C128.32056,809.454398 126.646726,811.273847 126.70675,813.438724 L127.096137,827.482779 C127.584573,845.099256 139.938644,860.149831 157.122078,864.062435 L169.537395,878.988578 C174.300868,884.715398 181.291855,888.124059 188.737394,888.350102 L306.573695,891.927553 C307.79817,891.96053 309.023379,891.971491 310.248189,891.947835 L810.034417,882.295262 C831.377364,881.883057 848.422987,864.388603 848.283949,843.042151 L843.485566,124.879176 C843.340417,103.139333 826.629132,85.1035021 804.963428,83.3037519 L322.796322,43.2505713 C317.644122,42.8225827 312.461032,42.943128 307.334299,43.6101783 L212.859988,55.9024335 L200.006556,55.9024335 C190.441822,55.9024335 181.319466,59.9311675 174.876809,67.00056 L157.122078,86.4824551 L136.664253,90.5816448 C125.137017,92.8913883 116.429294,102.394527 115.133407,114.079251 L113.943652,124.806995 C113.61521,127.768486 115.933535,130.358138 118.913184,130.358138 L124.958759,130.358138 C132.119687,130.358138 138.319198,135.333217 139.869868,142.324234 L139.869868,415.812548 C139.869868,419.015099 137.354701,421.653119 134.155789,421.805732 L112.000913,422.862692 L112.997039,442.822349 C113.20674,447.024173 115.272993,450.915474 118.636378,453.442713 C122.081836,456.031622 126.274957,457.431412 130.58467,457.431412 Z M319.47089,20.5014346 L358.239836,23.3262486 L356.786433,43.2733692 L318.017487,40.4485552 C305.2977,39.5217559 294.457547,49.5701783 294.418844,62.3236258 L291.987381,863.557263 C291.93952,879.328972 304.921257,892.028231 320.688097,891.633461 L386.458881,889.986692 L386.959484,909.980426 L321.1887,911.627195 C294.159832,912.303943 271.905425,890.533785 271.986798,863.496571 L274.418937,62.2629331 C274.492823,37.9154423 295.187661,18.7320905 319.47089,20.5014346 Z M281.868828,434.13575 L325.892184,434.13575 L847.736933,458.07845 L846.820279,478.057432 L325.433616,454.13575 L281.868828,454.13575 L281.868828,434.13575 Z M157.521545,830.030689 L156.366869,810.064049 L281.579919,802.82295 L325.72629,802.82295 L325.789675,802.823754 L850.127688,809.471585 L849.874138,829.469977 L325.599539,822.82295 L282.157738,822.82295 L157.521545,830.030689 Z M315.046156,122.380741 L829.958275,166.256424 L829.958275,125.279778 C829.958275,112.344612 820.091125,101.545512 807.208462,100.381251 L342.296342,58.3651497 C327.660486,57.0424447 315.046156,68.568173 315.046156,83.263677 L315.046156,122.380741 Z M217.306255,51.1153178 L191.745835,55.7713273 C177.485616,58.3689261 167.122078,70.790789 167.122078,85.285663 L167.122078,869.246804 C167.122078,879.763486 175.266845,888.483594 185.759077,889.200306 L216.195674,891.279396 L214.832673,911.232898 L184.396075,909.153808 C163.411612,907.720383 147.122078,890.280168 147.122078,869.246804 L147.122078,85.285663 C147.122078,61.1275396 164.394641,40.4244348 188.161673,36.0951035 L213.722093,31.439094 L217.306255,51.1153178 Z M283.90627,454.236082 L283.90627,497.068686 C283.90627,506.902763 276.402279,515.111714 266.607712,515.992351 L181.094451,523.680919 C169.974203,524.68075 160.393009,515.92236 160.393009,504.757255 L160.393009,464.121384 C160.393009,454.472101 167.625697,446.355151 177.211146,445.247077 L262.724407,435.361775 C274.007176,434.057491 283.90627,442.878176 283.90627,454.236082 Z M180.393009,465.012444 L180.393009,503.66331 L263.90627,496.154563 L263.90627,455.358341 L180.393009,465.012444 Z M284.78897,77.9088887 L284.583278,80.4846762 L284.504149,81.6489397 C284.107867,87.7741827 283.90627,95.6018276 283.90627,105.096381 C283.90627,111.324415 283.99287,116.749281 284.164948,121.363214 C284.651423,134.407103 275.391901,145.791629 262.521846,147.968545 L185.027758,161.076344 C173.713962,162.990025 163.112022,155.01285 161.819148,143.611002 C159.808871,125.882384 159.328886,113.179316 160.493146,105.014312 L160.495414,104.998425 C162.570291,90.4835071 173.874658,79.0211004 188.359538,76.7406632 L269.819758,63.9159167 C278.171127,62.6011131 285.540239,69.4839284 284.78897,77.9088887 Z M180.292872,107.837583 C179.432329,113.872606 179.860614,125.208064 181.691686,141.356554 L259.186309,128.248652 C262.154361,127.746618 264.291134,125.119469 264.178843,122.108601 C263.996753,117.226238 263.90627,111.558087 263.90627,105.096381 C263.90627,97.4197212 264.033766,90.7344448 264.293038,85.0323627 L191.469941,96.4973177 C185.765446,97.3954088 181.291311,101.843255 180.343184,107.512418 L180.292872,107.837583 Z" id="Shape" fill-rule="nonzero"></path>
        </g>
    </g>
</svg>