<?xml version="1.0" encoding="UTF-8"?>
<svg width="600px" height="600px" viewBox="0 0 600 600" version="1.1" xmlns="http://www.w3.org/2000/svg" xmlns:xlink="http://www.w3.org/1999/xlink">
    <title>assets/icon</title>
    <g id="/assets/icon" stroke="none" fill="none" fill-rule="nonzero">
        <g id="idF_8PZ3W5_1779375263124" transform="translate(0, 232.0845)" fill="#000000">
            <path d="M577.605634,19.125 L577.605634,61.625 C577.605634,69.275 569.15493,74.375 559.014085,74.375 C548.873239,74.375 540.84507,68.85 540.422535,61.625 L540.422535,19.125 L518.028169,19.125 L518.028169,62.05 C518.028169,62.05 518.028169,39.95 518.028169,62.05 C518.028169,84.15 535.774648,95.2 553.521127,95.2 C562.816901,95.2 571.267606,93.5 577.183099,90.1 L577.183099,99.875 C577.183099,106.675 572.112676,114.325 564.929577,114.325 L526.901408,114.325 L526.901408,136 L565.774648,136 C583.943662,136 599.15493,119.85 599.15493,102 L599.15493,19.125 L577.605634,19.125 L577.605634,19.125 Z M58.3098592,58.65 C58.3098592,65.875 57.0422535,71.825 54.5070423,75.65 C51.5492958,79.9 47.3239437,82.025 40.9859155,82.025 C32.5352113,82.025 23.2394366,77.35 22.8169014,64.6 L22.8169014,63.75 L0,63.75 L0,65.025 C0,75.65 3.38028169,85 10.1408451,91.8 C17.7464789,99.45 28.7323944,103.7 40.9859155,103.7 C52.8169014,103.7 62.9577465,99.875 70.1408451,92.225 C77.3239437,84.575 81.1267606,73.95 81.1267606,61.625 L81.1267606,0 L57.8873239,0 L57.8873239,58.65 L58.3098592,58.65 Z M156.760563,60.775 C156.760563,73.1 146.197183,83.3 133.943662,83.3 C127.605634,83.3 122.112676,80.75 117.887324,76.5 C113.661972,72.25 111.549296,66.725 111.549296,60.775 C111.549296,54.825 113.661972,49.3 117.887324,45.05 C122.112676,40.8 128.028169,38.25 133.943662,38.25 C146.619718,38.25 156.760563,48.45 156.760563,60.775 Z M155.492958,26.775 C150.84507,22.525 143.239437,18.275 132.253521,18.275 C121.267606,18.275 110.704225,22.525 102.676056,30.6 C94.6478873,38.675 90.4225352,49.3 90.4225352,60.775 C90.4225352,71.825 94.6478873,82.45 102.676056,90.525 C110.704225,98.6 120.84507,103.275 132.253521,103.275 C141.126761,103.275 149.15493,100.3 155.492958,94.775 L155.492958,102 L177.887324,102 L177.887324,19.125 L155.492958,19.125 L155.492958,26.775 Z M402.676056,16.575 C423.802817,16.575 441.971831,31.45 446.197183,52.275 C447.464789,58.225 447.464789,63.325 446.197183,68.425 L446.197183,69.275 L381.126761,69.275 C383.661972,78.625 391.690141,84.15 402.676056,84.15 C410.28169,84.15 417.887324,81.175 422.957746,76.5 L443.239437,82.025 L443.239437,82.45 C439.859155,89.25 433.943662,94.775 426.338028,99.025 C419.15493,102.85 410.704225,104.975 402.676056,104.975 C390.84507,104.975 379.43662,100.3 370.985915,91.8 C362.535211,83.725 358.309859,72.675 358.309859,61.2 C358.309859,49.3 362.957746,38.25 371.408451,30.175 C379.859155,21.25 390.84507,16.575 402.676056,16.575 L402.676056,16.575 Z M303.802817,0 L303.802817,57.8 L334.647887,19.55 L360.84507,19.55 L327.464789,61.2 L362.957746,102.85 L336.760563,102.85 L303.802817,63.75 L303.802817,102.425 L281.408451,102.425 L281.408451,0 L303.802817,0 Z M402.676056,36.975 C391.267606,36.975 384.084507,44.2 381.549296,51.85 L423.802817,51.85 C421.267606,44.2 414.084507,36.975 402.676056,36.975 Z M489.295775,19.125 C471.126761,19.125 455.915493,34 455.915493,51.85 L455.915493,102 L478.309859,102 L478.309859,53.975 C478.309859,47.175 483.380282,41.225 490.56338,41.225 L509.577465,41.225 L509.577465,19.125 L489.295775,19.125 M251.408451,70.125 L250.985915,70.55 C247.605634,78.625 240,83.725 231.126761,83.725 C218.450704,83.725 208.309859,73.1 208.309859,60.35 C208.309859,47.6 218.450704,36.975 231.126761,36.975 C239.577465,36.975 247.183099,42.075 250.985915,50.15 L251.408451,50.575 L272.535211,45.05 L272.112676,44.2 C265.352113,27.2 249.295775,16.575 231.549296,16.575 C219.71831,16.575 208.732394,21.25 200.28169,29.325 C191.830986,37.4 187.183099,48.875 187.183099,60.35 C187.183099,71.825 191.830986,82.875 199.859155,90.95 C208.309859,99.45 219.295775,104.125 231.549296,104.125 C249.71831,104.125 265.352113,93.5 272.112676,76.5 L272.535211,75.65 L251.408451,70.125 L251.408451,70.125 Z" id="Shape"></path>
        </g>
    </g>
</svg>